<mxfile host="app.diagrams.net" modified="2022-01-15T02:02:18.746Z" agent="5.0 (Macintosh; Intel Mac OS X 10_15_7) AppleWebKit/537.36 (KHTML, like Gecko) Chrome/97.0.4692.71 Safari/537.36" etag="SDAxEPsm2kVxYBrdze_q" version="16.2.4" type="github">
  <diagram id="aNHKNKSCEudAVE1aIXGI" name="Page-1">
    <mxGraphModel dx="946" dy="991" grid="1" gridSize="10" guides="1" tooltips="1" connect="1" arrows="1" fold="1" page="0" pageScale="1" pageWidth="827" pageHeight="1169" math="0" shadow="0">
      <root>
        <mxCell id="0" />
        <mxCell id="1" parent="0" />
        <mxCell id="t-aMpEct67ms8JD1DDLI-1" value="" style="rounded=0;whiteSpace=wrap;html=1;fillColor=none;strokeWidth=3;strokeColor=#9673a6;" vertex="1" parent="1">
          <mxGeometry x="120" y="80" width="240" height="240" as="geometry" />
        </mxCell>
        <mxCell id="t-aMpEct67ms8JD1DDLI-2" value="terraform module" style="text;html=1;strokeColor=none;fillColor=none;align=center;verticalAlign=middle;whiteSpace=wrap;rounded=0;" vertex="1" parent="1">
          <mxGeometry x="170" y="50" width="140" height="30" as="geometry" />
        </mxCell>
        <mxCell id="t-aMpEct67ms8JD1DDLI-3" value="vpc" style="rounded=0;whiteSpace=wrap;html=1;strokeWidth=3;fillColor=none;" vertex="1" parent="1">
          <mxGeometry x="170" y="130" width="120" height="60" as="geometry" />
        </mxCell>
        <mxCell id="t-aMpEct67ms8JD1DDLI-4" value="bastion" style="rounded=0;whiteSpace=wrap;html=1;strokeWidth=3;fillColor=none;" vertex="1" parent="1">
          <mxGeometry x="170" y="230" width="120" height="60" as="geometry" />
        </mxCell>
        <mxCell id="t-aMpEct67ms8JD1DDLI-5" value="" style="rounded=0;whiteSpace=wrap;html=1;strokeWidth=3;fillColor=none;" vertex="1" parent="1">
          <mxGeometry x="440" y="-40" width="240" height="360" as="geometry" />
        </mxCell>
        <mxCell id="t-aMpEct67ms8JD1DDLI-6" value="tenancy" style="text;html=1;strokeColor=none;fillColor=none;align=center;verticalAlign=middle;whiteSpace=wrap;rounded=0;" vertex="1" parent="1">
          <mxGeometry x="490" y="-70" width="140" height="30" as="geometry" />
        </mxCell>
        <mxCell id="t-aMpEct67ms8JD1DDLI-7" value="" style="rounded=0;whiteSpace=wrap;html=1;strokeWidth=3;fillColor=none;" vertex="1" parent="1">
          <mxGeometry x="470" y="20" width="180" height="270" as="geometry" />
        </mxCell>
        <mxCell id="t-aMpEct67ms8JD1DDLI-9" value="main" style="text;html=1;strokeColor=none;fillColor=none;align=center;verticalAlign=middle;whiteSpace=wrap;rounded=0;" vertex="1" parent="1">
          <mxGeometry x="490" y="-10" width="140" height="30" as="geometry" />
        </mxCell>
        <mxCell id="t-aMpEct67ms8JD1DDLI-10" value="" style="rounded=0;whiteSpace=wrap;html=1;strokeWidth=3;fillColor=none;" vertex="1" parent="1">
          <mxGeometry x="485" y="70" width="150" height="210" as="geometry" />
        </mxCell>
        <mxCell id="t-aMpEct67ms8JD1DDLI-11" value="us-east-2" style="text;html=1;strokeColor=none;fillColor=none;align=center;verticalAlign=middle;whiteSpace=wrap;rounded=0;" vertex="1" parent="1">
          <mxGeometry x="490" y="40" width="140" height="30" as="geometry" />
        </mxCell>
        <mxCell id="t-aMpEct67ms8JD1DDLI-12" value="" style="rounded=0;whiteSpace=wrap;html=1;strokeWidth=3;fillColor=none;" vertex="1" parent="1">
          <mxGeometry x="502.5" y="120" width="115" height="150" as="geometry" />
        </mxCell>
        <mxCell id="t-aMpEct67ms8JD1DDLI-13" value="prod" style="text;html=1;strokeColor=none;fillColor=none;align=center;verticalAlign=middle;whiteSpace=wrap;rounded=0;" vertex="1" parent="1">
          <mxGeometry x="490" y="90" width="140" height="30" as="geometry" />
        </mxCell>
      </root>
    </mxGraphModel>
  </diagram>
</mxfile>
